<svg xmlns="http://www.w3.org/2000/svg" xmlns:xlink="http://www.w3.org/1999/xlink" viewBox="0 0 280 250" preserveAspectRatio="xMidYMid" style="display: block; shape-rendering: auto; background: transparent;" width="280" height="250"><style type="text/css">
  .ld-text text {
    text-anchor: middle;
    dominant-baseline: middle;
    font-size: 57px;
    opacity: 0;
    user-select: none;
    pointer-events: none;
  }
</style>
<g style="transform-origin:140px 125px;transform:scale(1)" class="ld-text">
<g transform="translate(140,125)">
  <g transform="scale(0.7125) translate(0,0)"><g class="path" style="opacity: 1; transform-origin: -126.04px 2.93px; transform: matrix3d(0.91, 0, 0, 0, 0, 0.91, 0, 0, 0, 0, 0.91, 0, 0, 0, 0, 1); animation: 1s linear -0.594s infinite normal forwards running animate-0n2qhv1fgvbc; transform-box: view-box;"><path d="M24.64 50.98L24.64 50.98L24.64 49.46Q29.60 49.22 31.36 46.90Q33.12 44.58 34.64 36.18L34.64 36.18L42.32-8.06Q25.92-6.70 17-0.98Q8.08 4.74 8.08 13.94L8.08 13.94Q8.08 18.10 10.96 20.98L10.96 20.98Q12.96 22.90 16.24 23.90Q19.52 24.90 21.64 25.02Q23.76 25.14 23.92 24.98L23.92 24.98L23.92 26.66Q14.48 26.66 9.92 22.18L9.92 22.18Q6.56 19.06 6.56 13.94L6.56 13.94Q6.56 2.50 18.52-3.74Q30.48-9.98 52.32-9.98L52.32-9.98Q65.92-9.98 71.64-6.30Q77.36-2.62 77.36 3.74Q77.36 10.10 73 14.66Q68.64 19.22 61.52 21.70L61.52 21.70Q71.92 43.30 74.88 47.66Q77.84 52.02 82 52.02L82 52.02Q84.48 52.02 86.44 50.46Q88.40 48.90 89.20 46.26L89.20 46.26L91.20 46.26Q88.64 54.58 78.64 54.58L78.64 54.58Q72.32 54.58 68.20 51.58Q64.08 48.58 61.28 42.50L61.28 42.50L52.64 23.78Q49.44 24.10 47.92 24.10L47.92 24.10Q47.68 25.30 47.20 28.18Q46.72 31.06 46.40 32.50L46.40 32.50Q44.80 41.14 38.36 46.06Q31.92 50.98 24.64 50.98 zM75.28 4.02L75.28 4.02Q75.28-8.22 53.04-8.46L53.04-8.46L48.24 22.34Q59.60 22.02 67.44 16.62Q75.28 11.22 75.28 4.02" style="fill: rgb(110, 6, 242);" transform="translate(-174.920,-19.372)"></path></g><g class="path" style="opacity: 1; transform-origin: -78.44px 4.17px; transform: matrix3d(0.91, 0, 0, 0, 0, 0.91, 0, 0, 0, 0, 0.91, 0, 0, 0, 0, 1); animation: 1s linear -0.528s infinite normal forwards running animate-0n2qhv1fgvbc; transform-box: view-box;"><path d="M93.36 39.46Q87.20 39.46 84 36.38Q80.80 33.30 80.80 28.62Q80.80 23.94 81.64 20.62Q82.48 17.30 84.40 14.22Q86.32 11.14 90.20 9.38Q94.08 7.62 99.88 7.62Q105.68 7.62 108.92 10.70Q112.16 13.78 112.16 19.14L112.16 19.14Q112.16 28.26 107.32 33.86Q102.48 39.46 93.36 39.46L93.36 39.46 zM89.84 31.22L89.84 31.22Q89.84 37.62 93.56 37.62Q97.28 37.62 100.20 31.18Q103.12 24.74 103.12 15.86L103.12 15.86Q103.12 9.14 99.48 9.14Q95.84 9.14 92.84 15.26Q89.84 21.38 89.84 31.22" style="fill: rgb(110, 6, 242);" transform="translate(-174.920,-19.372)"></path></g><g class="path" style="opacity: 1; transform-origin: -41.64px -6.19px; transform: matrix3d(0.91, 0, 0, 0, 0, 0.91, 0, 0, 0, 0, 0.91, 0, 0, 0, 0, 1); animation: 1s linear -0.462s infinite normal forwards running animate-0n2qhv1fgvbc; transform-box: view-box;"><path d="M146.08 37.86L146.08 37.86Q148 37.86 150.08 35.62L150.08 35.62L151.28 36.58Q150.72 37.70 148.80 38.58Q146.88 39.46 144.56 39.46L144.56 39.46Q137.28 39.46 137.28 32.90L137.28 32.90Q137.28 30.10 138.72 22.90Q140.16 15.70 140.16 13.46L140.16 13.46Q140.16 10.02 136.88 10.02L136.88 10.02Q134.16 10.02 131.64 13.70Q129.12 17.38 127.52 23.70L127.52 23.70L124.88 38.74L115.28 38.74L124.16-11.50Q121.76-11.26 120.16-9.26L120.16-9.26L118.96-10.22Q121.36-13.10 125-13.10Q128.64-13.10 130.64-11.26Q132.64-9.42 132.64-6.06L132.64-6.06Q132.64-5.42 132.48-3.98L132.48-3.98L129.12 14.98Q132.40 7.62 139.28 7.62L139.28 7.62Q144 7.62 146.64 10.30Q149.28 12.98 149.28 17.70L149.28 17.70Q149.28 20.18 147.76 27.26Q146.24 34.34 146.08 37.86" style="fill: rgb(110, 6, 242);" transform="translate(-174.920,-19.372)"></path></g><g class="path" style="opacity: 1; transform-origin: -11.76px 4.17px; transform: matrix3d(0.91, 0, 0, 0, 0, 0.91, 0, 0, 0, 0, 0.91, 0, 0, 0, 0, 1); animation: 1s linear -0.396s infinite normal forwards running animate-0n2qhv1fgvbc; transform-box: view-box;"><path d="M169.84 36.58Q167.44 39.46 163.84 39.46Q160.24 39.46 158.20 37.62Q156.16 35.78 156.16 32.82L156.16 32.82Q156.16 31.78 157.44 24.10L157.44 24.10L160.08 9.78L156.72 9.78L156.88 8.34L160.32 8.34Q166.24 8.34 169.04 7.86L169.04 7.86L170.16 7.62L164.64 37.86Q167.04 37.62 168.64 35.62L168.64 35.62L169.84 36.58" style="fill: rgb(110, 6, 242);" transform="translate(-174.920,-19.372)"></path></g><g class="path" style="opacity: 1; transform-origin: -8px -23.55px; transform: matrix3d(0.91, 0, 0, 0, 0, 0.91, 0, 0, 0, 0, 0.91, 0, 0, 0, 0, 1); animation: 1s linear -0.33s infinite normal forwards running animate-0n2qhv1fgvbc; transform-box: view-box;"><path d="M162.80-0.06Q161.12-1.74 161.12-4.14Q161.12-6.54 162.80-8.26Q164.48-9.98 166.88-9.98Q169.28-9.98 171-8.26Q172.72-6.54 172.72-4.14Q172.72-1.74 171-0.06Q169.28 1.62 166.88 1.62Q164.48 1.62 162.80-0.06" style="fill: rgb(110, 6, 242);" transform="translate(-174.920,-19.372)"></path></g><g class="path" style="opacity: 1; transform-origin: 12.04px -1.75px; transform: matrix3d(0.91, 0, 0, 0, 0, 0.91, 0, 0, 0, 0, 0.91, 0, 0, 0, 0, 1); animation: 1s linear -0.264s infinite normal forwards running animate-0n2qhv1fgvbc; transform-box: view-box;"><path d="M175.28 8.34L179.36 8.34L181.52-3.50Q187.44-3.50 190.32-3.98L190.32-3.98L191.36-4.22Q190.24 1.38 188.88 8.34L188.88 8.34L198.80 8.34L198.64 9.78L188.64 9.78Q184.64 30.42 184.64 34.66L184.64 34.66Q184.64 37.22 187.36 37.22Q190.08 37.22 192.32 33.78Q194.56 30.34 195.52 26.34L195.52 26.34L196.96 26.82Q194 39.46 184.72 39.46L184.72 39.46Q180.88 39.46 178.32 37.34Q175.76 35.22 175.76 31.42Q175.76 27.62 179.04 9.78L179.04 9.78L175.12 9.78L175.28 8.34" style="fill: rgb(110, 6, 242);" transform="translate(-174.920,-19.372)"></path></g><g class="path" style="opacity: 1; transform-origin: 31.2px 14.21px; transform: matrix3d(0.91, 0, 0, 0, 0, 0.91, 0, 0, 0, 0, 0.91, 0, 0, 0, 0, 1); animation: 1s linear -0.198s infinite normal forwards running animate-0n2qhv1fgvbc; transform-box: view-box;"><path d="M202 37.70Q200.32 36.02 200.32 33.62Q200.32 31.22 202 29.50Q203.68 27.78 206.08 27.78Q208.48 27.78 210.20 29.50Q211.92 31.22 211.92 33.62Q211.92 36.02 210.20 37.70Q208.48 39.38 206.08 39.38Q203.68 39.38 202 37.70" style="fill: rgb(110, 6, 242);" transform="translate(-174.920,-19.372)"></path></g><g class="path" style="opacity: 1; transform-origin: 79.04px -2.35px; transform: matrix3d(0.91, 0, 0, 0, 0, 0.91, 0, 0, 0, 0, 0.91, 0, 0, 0, 0, 1); animation: 1s linear -0.132s infinite normal forwards running animate-0n2qhv1fgvbc; transform-box: view-box;"><path d="M280.88 34.58Q277.12 38.98 270.76 41.62Q264.40 44.26 257.72 44.26Q251.04 44.26 246.40 42.98L246.40 42.98Q240.88 46.90 234.64 46.90L234.64 46.90L234.64 45.38Q237.76 45.30 239.16 44.54Q240.56 43.78 241.60 41.30L241.60 41.30Q237.44 39.46 234.32 36.62Q231.20 33.78 230.12 32.02Q229.04 30.26 229.04 29.94L229.04 29.94L230.48 29.38Q230.48 29.70 231.48 31.30Q232.48 32.90 235.40 35.58Q238.32 38.26 242.16 39.94L242.16 39.94Q243.28 37.14 244 32.98L244 32.98L251.12-8.14Q242.80-7.50 236.40-4.86L236.40-4.86Q241.84 0.90 241.84 8.90L241.84 8.90Q241.84 16.26 237.88 20.70Q233.92 25.14 229.12 25.14Q224.32 25.14 221.76 22.22Q219.20 19.30 219.20 15.30L219.20 15.30Q219.20 9.06 222.72 3.58Q226.24-1.90 233.60-5.42L233.60-5.42Q228.32-9.90 219.68-11.34L219.68-11.34L220-12.86Q229.68-11.10 235.12-6.06L235.12-6.06Q244.80-9.98 258.76-9.98Q272.72-9.98 280.72-3.62Q288.72 2.74 288.72 14.10L288.72 14.10Q288.72 25.70 280.88 34.58L280.88 34.58 zM256.40 42.82L256.40 42.82Q264 42.82 270.08 40.30Q276.16 37.78 279.76 33.62L279.76 33.62Q287.20 25.14 287.20 14.62Q287.20 4.10 280.32-1.82Q273.44-7.74 261.12-8.38L261.12-8.38Q257.20 18.10 254.96 29.70L254.96 29.70Q253.52 37.06 247.92 41.86L247.92 41.86Q252.16 42.82 256.40 42.82 zM220.72 15.30L220.72 15.30Q220.72 18.58 222.84 21.10Q224.96 23.62 229.16 23.62Q233.36 23.62 236.56 19.94Q239.76 16.26 240.24 10.58L240.24 10.58Q240.32 9.54 240.32 8.50L240.32 8.50Q240.32 1.30 234.80-4.22L234.80-4.22Q227.60-0.94 224.16 4.22Q220.72 9.38 220.72 15.30" style="fill: rgb(110, 6, 242);" transform="translate(-174.920,-19.372)"></path></g><g class="path" style="opacity: 1; transform-origin: 131.96px 4.17px; transform: matrix3d(0.91, 0, 0, 0, 0, 0.91, 0, 0, 0, 0, 0.91, 0, 0, 0, 0, 1); animation: 1s linear -0.066s infinite normal forwards running animate-0n2qhv1fgvbc; transform-box: view-box;"><path d="M310.40 7.62L310.40 7.62Q320.56 7.62 320.56 15.70L320.56 15.70Q320.56 20.74 315.80 23.34Q311.04 25.94 302.24 26.02L302.24 26.02Q302.08 28.90 302.08 30.58L302.08 30.58Q302.08 34.18 303.72 35.90Q305.36 37.62 307.84 37.62Q310.32 37.62 312.36 36.66Q314.40 35.70 315.60 34.38Q316.80 33.06 317.68 31.62L317.68 31.62Q319.28 28.98 319.28 28.26L319.28 28.26L320.72 28.90Q320.48 30.18 319.28 32.30Q318.08 34.42 316.64 35.78Q315.20 37.14 312.40 38.30Q309.60 39.46 306.16 39.46L306.16 39.46Q299.68 39.46 296.36 36.38Q293.04 33.30 293.04 27.94L293.04 27.94Q293.04 18.42 297.76 13.02Q302.48 7.62 310.40 7.62 zM318.56 15.70Q318.56 13.06 317 11.34Q315.44 9.62 312.36 9.62Q309.28 9.62 306.36 13.30Q303.44 16.98 302.48 24.18L302.48 24.18Q318.56 24.10 318.56 15.70L318.56 15.70" style="fill: rgb(110, 6, 242);" transform="translate(-174.920,-19.372)"></path></g><g class="path" style="opacity: 1; transform-origin: 165.52px 4.17px; transform: matrix3d(0.91, 0, 0, 0, 0, 0.91, 0, 0, 0, 0, 0.91, 0, 0, 0, 0, 1); animation: 1s linear 0s infinite normal forwards running animate-0n2qhv1fgvbc; transform-box: view-box;"><path d="M345.84 17.54Q344.16 15.86 344.16 13.46Q344.16 11.06 345.84 9.34Q347.52 7.62 349.64 7.62Q351.76 7.62 353.24 8.70Q354.72 9.78 355.36 11.46L355.36 11.46Q355.44 11.54 355.44 11.62L355.44 11.62L355.44 11.70Q356.40 13.78 356.40 17.74Q356.40 21.70 355.48 24.98Q354.56 28.26 352.68 31.66Q350.80 35.06 347.20 37.26Q343.60 39.46 338.72 39.46Q333.84 39.46 330.60 36.26Q327.36 33.06 327.36 28.90Q327.36 24.74 328.84 18.62Q330.32 12.50 330.48 9.22L330.48 9.22Q329.20 9.30 328 10.14Q326.80 10.98 326.24 11.78L326.24 11.78L325.68 12.58L324.48 11.62Q324.72 11.14 325.20 10.50Q325.68 9.86 327.64 8.74Q329.60 7.62 332.56 7.62Q335.52 7.62 337.32 9.54Q339.12 11.46 339.12 14.42Q339.12 17.38 337.52 23.58Q335.92 29.78 335.92 32.30Q335.92 34.82 337.08 36.26Q338.24 37.70 340.40 37.70L340.40 37.70Q345.76 37.70 350.16 31.86Q354.56 26.02 354.56 18.82L354.56 18.82Q354.56 18.26 354.40 17.14L354.40 17.14Q352.72 19.22 350.12 19.22Q347.52 19.22 345.84 17.54" style="fill: rgb(110, 6, 242);" transform="translate(-174.920,-19.372)"></path></g></g><text dy="0.35em" fill="#6e06f2" font-family="Sail" font-size="57">Rohit.Dev</text>
</g>
</g><style type="text/css">@keyframes animate-0n2qhv1fgvbc { 0.00% {transform: translate(0.00px,0.00px) rotate(0.00deg) scale(0.91, 0.91) skew(0deg, 0.00deg) ;opacity: 1.00;}4.00% {transform: translate(0.00px,0.00px) rotate(0.00deg) scale(0.91, 0.91) ;}8.00% {animation-timing-function: cubic-bezier(0.69,0.60,0.35,0.27);transform: translate(0.00px,0.00px) rotate(0.00deg) scale(0.91, 0.91) ;}14.00% {transform: translate(0.00px,0.00px) rotate(0.00deg) scale(0.93, 0.93) ;}18.00% {transform: translate(0.00px,0.00px) rotate(0.00deg) scale(0.94, 0.94) ;}22.00% {animation-timing-function: cubic-bezier(0.67,0.66,0.34,0.33);transform: translate(0.00px,0.00px) rotate(0.00deg) scale(0.96, 0.96) ;}26.00% {transform: translate(0.00px,0.00px) rotate(0.00deg) scale(0.97, 0.97) ;}30.00% {transform: translate(0.00px,0.00px) rotate(0.00deg) scale(0.99, 0.99) ;}34.00% {animation-timing-function: cubic-bezier(0.65,0.71,0.32,0.38);transform: translate(0.00px,0.00px) rotate(0.00deg) scale(1.01, 1.01) ;}40.00% {animation-timing-function: cubic-bezier(0.64,0.74,0.31,0.41);transform: translate(0.00px,0.00px) rotate(0.00deg) scale(1.02, 1.02) ;}46.00% {animation-timing-function: cubic-bezier(0.60,0.91,0.23,0.63);transform: translate(0.00px,0.00px) rotate(0.00deg) scale(1.03, 1.03) ;}50.00% {transform: translate(0.00px,0.00px) rotate(0.00deg) scale(1.03, 1.03) ;}54.00% {transform: translate(0.00px,0.00px) rotate(0.00deg) scale(1.03, 1.03) ;}58.00% {animation-timing-function: cubic-bezier(0.69,0.60,0.35,0.27);transform: translate(0.00px,0.00px) rotate(0.00deg) scale(1.03, 1.03) ;}64.00% {transform: translate(0.00px,0.00px) rotate(0.00deg) scale(1.01, 1.01) ;}68.00% {transform: translate(0.00px,0.00px) rotate(0.00deg) scale(1.00, 1.00) ;}72.00% {animation-timing-function: cubic-bezier(0.67,0.66,0.34,0.33);transform: translate(0.00px,0.00px) rotate(0.00deg) scale(0.98, 0.98) ;}76.00% {animation-timing-function: cubic-bezier(0.66,0.68,0.33,0.35);transform: translate(0.00px,0.00px) rotate(0.00deg) scale(0.97, 0.97) ;}82.00% {animation-timing-function: cubic-bezier(0.65,0.71,0.32,0.38);transform: translate(0.00px,0.00px) rotate(0.00deg) scale(0.94, 0.94) ;}88.00% {animation-timing-function: cubic-bezier(0.65,0.73,0.31,0.40);transform: translate(0.00px,0.00px) rotate(0.00deg) scale(0.92, 0.92) ;}94.00% {animation-timing-function: cubic-bezier(0.63,0.80,0.28,0.48);transform: translate(0.00px,0.00px) rotate(0.00deg) scale(0.91, 0.91) ;}100.00% {animation-timing-function: cubic-bezier(0.63,0.80,0.28,0.48);transform: translate(0.00px,0.00px) rotate(0.00deg) scale(0.91, 0.91) ;} }</style><!-- [ldio] generated by https://loading.io --></svg>